<?xml version="1.0" encoding="UTF-8" standalone="no"?>
<!-- Created with Inkscape (http://www.inkscape.org/) -->

<svg
   width="210mm"
   height="297mm"
   viewBox="0 0 210 297"
   version="1.1"
   id="svg5"
   inkscape:version="1.2.2 (732a01da63, 2022-12-09)"
   sodipodi:docname="button_structure_mk2.svg"
   xmlns:inkscape="http://www.inkscape.org/namespaces/inkscape"
   xmlns:sodipodi="http://sodipodi.sourceforge.net/DTD/sodipodi-0.dtd"
   xmlns="http://www.w3.org/2000/svg"
   xmlns:svg="http://www.w3.org/2000/svg">
  <sodipodi:namedview
     id="namedview7"
     pagecolor="#ffffff"
     bordercolor="#000000"
     borderopacity="0.25"
     inkscape:showpageshadow="2"
     inkscape:pageopacity="0.0"
     inkscape:pagecheckerboard="0"
     inkscape:deskcolor="#d1d1d1"
     inkscape:document-units="mm"
     showgrid="true"
     inkscape:zoom="6.7277216"
     inkscape:cx="396.34517"
     inkscape:cy="439.37609"
     inkscape:window-width="1600"
     inkscape:window-height="1137"
     inkscape:window-x="1432"
     inkscape:window-y="-8"
     inkscape:window-maximized="1"
     inkscape:current-layer="layer1">
    <inkscape:grid
       type="xygrid"
       id="grid9"
       units="mm"
       spacingx="1"
       spacingy="1"
       empspacing="10"
       originx="0"
       originy="0"
       visible="true" />
  </sodipodi:namedview>
  <defs
     id="defs2" />
  <g
     inkscape:label="Layer 1"
     inkscape:groupmode="layer"
     id="layer1">
    <rect
       style="opacity:1;fill:#008000;stroke:none;stroke-width:2;stroke-linecap:round;stroke-linejoin:round"
       id="rect444"
       width="30.000002"
       height="1"
       x="90"
       y="115" />
    <path
       id="path722"
       style="opacity:1;fill:#808080;stroke:none;stroke-width:2;stroke-linecap:round;stroke-linejoin:round"
       d="m 88.00015,110.99993 -2.7e-4,6 h -4.000272 v 1.99988 L 126,118.99988 V 117 h -4.00027 L 122,111 h -0.99994 l -0.99994,0.99994 0.99994,0.99994 L 121,115 h -1 v 1 H 90 v -1 h -1 l 8.9e-5,-2.00019 0.999939,-0.99994 -0.999939,-0.99994 z"
       sodipodi:nodetypes="ccccccccccccccccccccc" />
    <g
       id="g859"
       transform="translate(-7.9999924)">
      <rect
         style="opacity:1;fill:#000000;stroke:none;stroke-width:2;stroke-linecap:round;stroke-linejoin:round"
         id="rect789"
         width="4"
         height="3"
         x="111"
         y="109.99999" />
      <rect
         style="opacity:1;fill:#4d4d4d;stroke:none;stroke-width:2;stroke-linecap:round;stroke-linejoin:round"
         id="rect787"
         width="6"
         height="3"
         x="109.99999"
         y="112" />
    </g>
    <path
       id="rect232"
       style="opacity:1;fill:#ff0000;stroke:none;stroke-width:2;stroke-linecap:round;stroke-linejoin:round"
       d="m 91.00013,104.99979 c -1.657117,-1.8e-4 -3.000521,1.34322 -3.000333,3.00034 L 89.000252,110 l 0.999422,0.99994 5.17e-4,0.99994 -0.999939,0.99994 L 89,114 l 10.00022,0 2.99981,-3.99976 h 6.00015 L 111,114 h 10 l 3.7e-4,-1.00018 -0.99994,-0.99994 -5.2e-4,-0.99994 0.99994,-0.99994 0.99994,-1.99987 c 1.9e-4,-1.65692 -1.3429,-3.00024 -2.99982,-3.00034 z"
       sodipodi:nodetypes="ccccccccccccccccccc" />
  </g>
</svg>
